<svg width="44" height="38" viewBox="0 0 44 38" fill="none" xmlns="http://www.w3.org/2000/svg">
<path d="M39.875 6.12305H32.9688L31.3234 1.51211C31.2098 1.1966 31.0015 0.923869 30.727 0.731183C30.4525 0.538498 30.1252 0.435251 29.7898 0.435548H14.2102C13.5246 0.435548 12.9102 0.867188 12.6816 1.51211L11.0312 6.12305H4.125C1.88047 6.12305 0.0625 7.94102 0.0625 10.1855V33.3418C0.0625 35.5863 1.88047 37.4043 4.125 37.4043H39.875C42.1195 37.4043 43.9375 35.5863 43.9375 33.3418V10.1855C43.9375 7.94102 42.1195 6.12305 39.875 6.12305ZM22 29.2793C17.5109 29.2793 13.875 25.6434 13.875 21.1543C13.875 16.6652 17.5109 13.0293 22 13.0293C26.4891 13.0293 30.125 16.6652 30.125 21.1543C30.125 25.6434 26.4891 29.2793 22 29.2793ZM17.125 21.1543C17.125 22.4472 17.6386 23.6872 18.5529 24.6014C19.4671 25.5157 20.7071 26.0293 22 26.0293C23.2929 26.0293 24.5329 25.5157 25.4471 24.6014C26.3614 23.6872 26.875 22.4472 26.875 21.1543C26.875 19.8614 26.3614 18.6214 25.4471 17.7072C24.5329 16.7929 23.2929 16.2793 22 16.2793C20.7071 16.2793 19.4671 16.7929 18.5529 17.7072C17.6386 18.6214 17.125 19.8614 17.125 21.1543Z" fill="#6B6B6B"/>
</svg>
