<svg width="24" height="24" viewBox="0 0 24 24" fill="none" xmlns="http://www.w3.org/2000/svg">
<path d="M12 0C9.62663 0 7.30655 0.703788 5.33316 2.02236C3.35977 3.34094 1.8217 5.21508 0.913451 7.4078C0.00519937 9.60051 -0.232441 12.0133 0.230582 14.3411C0.693605 16.6689 1.83649 18.807 3.51472 20.4853C5.19295 22.1635 7.33115 23.3064 9.65892 23.7694C11.9867 24.2324 14.3995 23.9948 16.5922 23.0865C18.7849 22.1783 20.6591 20.6402 21.9776 18.6668C23.2962 16.6934 24 14.3734 24 12C23.9964 8.81851 22.7309 5.76838 20.4813 3.51873C18.2316 1.26908 15.1815 0.00362976 12 0ZM12 22.2857C9.27206 22.2857 6.65585 21.202 4.72691 19.2731C2.79796 17.3441 1.71429 14.7279 1.71429 12C1.71429 9.27206 2.79796 6.65585 4.72691 4.7269C6.65585 2.79796 9.27206 1.71429 12 1.71429V12L19.2694 19.2694C18.3161 20.2262 17.1831 20.9852 15.9356 21.5028C14.6881 22.0204 13.3506 22.2865 12 22.2857Z" fill="#E37271"/>
</svg>
