<svg width="24" height="24" viewBox="0 0 24 24" fill="none" xmlns="http://www.w3.org/2000/svg">
<g clip-path="url(#clip0_111_11496)">
<path d="M0 12C0 5.373 5.373 0 12 0C18.627 0 24 5.373 24 12C24 18.627 18.627 24 12 24C5.376 23.992 0.008 18.624 0 12.001V12ZM2.4 12C2.4 17.302 6.698 21.6 12 21.6C17.302 21.6 21.6 17.302 21.6 12C21.6 6.698 17.302 2.4 12 2.4C6.701 2.406 2.406 6.701 2.4 11.999V12ZM6.4 12C6.4 10.5148 6.99 9.09041 8.0402 8.0402C9.09041 6.99 10.5148 6.4 12 6.4C13.4852 6.4 14.9096 6.99 15.9598 8.0402C17.01 9.09041 17.6 10.5148 17.6 12C17.6 13.4852 17.01 14.9096 15.9598 15.9598C14.9096 17.01 13.4852 17.6 12 17.6C10.5148 17.6 9.09041 17.01 8.0402 15.9598C6.99 14.9096 6.4 13.4852 6.4 12Z" fill="#E37271"/>
</g>
<defs>
<clipPath id="clip0_111_11496">
<rect width="24" height="24" fill="white"/>
</clipPath>
</defs>
</svg>
