<svg width="24" height="24" viewBox="0 0 24 24" fill="none" xmlns="http://www.w3.org/2000/svg">
<path d="M7.20005 2.3999C6.56353 2.3999 5.95308 2.65276 5.50299 3.10285C5.05291 3.55293 4.80005 4.16338 4.80005 4.7999V19.1999C4.80005 19.8364 5.05291 20.4469 5.50299 20.897C5.95308 21.347 6.56353 21.5999 7.20005 21.5999H18.6C18.7592 21.5999 18.9118 21.5367 19.0243 21.4242C19.1368 21.3116 19.2 21.159 19.2 20.9999C19.2 20.8408 19.1368 20.6882 19.0243 20.5756C18.9118 20.4631 18.7592 20.3999 18.6 20.3999H7.20005C6.88179 20.3999 6.57656 20.2735 6.35152 20.0484C6.12648 19.8234 6.00005 19.5182 6.00005 19.1999H18C18.3183 19.1999 18.6235 19.0735 18.8486 18.8484C19.0736 18.6234 19.2 18.3182 19.2 17.9999V4.7999C19.2 4.16338 18.9472 3.55293 18.4971 3.10285C18.047 2.65276 17.4366 2.3999 16.8 2.3999H7.20005ZM10.512 7.6907C10.3246 7.88083 10.2135 8.13323 10.2 8.3999C10.2 8.55903 10.1368 8.71164 10.0243 8.82417C9.91179 8.93669 9.75918 8.9999 9.60005 8.9999C9.44092 8.9999 9.28831 8.93669 9.17579 8.82417C9.06326 8.71164 9.00005 8.55903 9.00005 8.3999C9.00005 7.9619 9.16805 7.3571 9.64805 6.8591C10.14 6.3479 10.908 5.9999 12 5.9999C13.092 5.9999 13.86 6.3467 14.352 6.8591C14.832 7.3571 15 7.9619 15 8.3999C15 9.6551 14.124 10.2563 13.4676 10.5827C13.3128 10.6585 13.156 10.7301 12.9972 10.7975L12.984 10.8035C12.8543 10.858 12.7262 10.9164 12.6 10.9787V11.9999C12.6002 12.159 12.5371 12.3117 12.4247 12.4243C12.3123 12.537 12.1598 12.6003 12.0006 12.6005C11.8415 12.6007 11.6888 12.5376 11.5762 12.4252C11.4636 12.3128 11.4002 12.1602 11.4 12.0011V10.7999C11.4 10.5023 11.5536 10.2887 11.6916 10.1579C11.8224 10.0355 11.9796 9.9479 12.1056 9.8843C12.228 9.8219 12.3672 9.7619 12.4944 9.7079L12.5208 9.6959C12.6624 9.6347 12.7992 9.5759 12.9324 9.5087C13.476 9.2375 13.8 8.9447 13.8 8.3999C13.7866 8.13323 13.6755 7.88083 13.488 7.6907C13.26 7.4519 12.828 7.1999 12 7.1999C11.172 7.1999 10.74 7.4531 10.512 7.6907ZM12 15.5999C11.7614 15.5999 11.5324 15.5051 11.3637 15.3363C11.1949 15.1675 11.1 14.9386 11.1 14.6999C11.1 14.4612 11.1949 14.2323 11.3637 14.0635C11.5324 13.8947 11.7614 13.7999 12 13.7999C12.2387 13.7999 12.4677 13.8947 12.6364 14.0635C12.8052 14.2323 12.9 14.4612 12.9 14.6999C12.9 14.9386 12.8052 15.1675 12.6364 15.3363C12.4677 15.5051 12.2387 15.5999 12 15.5999Z" fill="#03083E"/>
</svg>
